<?xml version="1.0" encoding="UTF-8" standalone="no"?>
<!-- Created with Inkscape (http://www.inkscape.org/) -->

<svg
   xmlns:dc="http://purl.org/dc/elements/1.1/"
   xmlns:cc="http://creativecommons.org/ns#"
   xmlns:rdf="http://www.w3.org/1999/02/22-rdf-syntax-ns#"
   xmlns:svg="http://www.w3.org/2000/svg"
   xmlns="http://www.w3.org/2000/svg"
   xmlns:sodipodi="http://sodipodi.sourceforge.net/DTD/sodipodi-0.dtd"
   xmlns:inkscape="http://www.inkscape.org/namespaces/inkscape"
   width="18px"
   height="18px"
   viewBox="0 0 18 18"
   version="1.1"
   id="SVGRoot"
   inkscape:version="0.92.4 5da689c313, 2019-01-14"
   sodipodi:docname="logocolor.svg"
   inkscape:export-filename="/home/benjamin/workspace/logo/youtube.png"
   inkscape:export-xdpi="4266.6699"
   inkscape:export-ydpi="4266.6699">
  <defs
     id="defs2574" />
  <sodipodi:namedview
     id="base"
     pagecolor="#fff8d8"
     bordercolor="#666666"
     borderopacity="1.0"
     inkscape:pageopacity="1"
     inkscape:pageshadow="2"
     inkscape:zoom="22.627417"
     inkscape:cx="1.8432445"
     inkscape:cy="5.4002551"
     inkscape:document-units="px"
     inkscape:current-layer="layer1"
     showgrid="false"
     inkscape:window-width="1920"
     inkscape:window-height="1058"
     inkscape:window-x="1920"
     inkscape:window-y="22"
     inkscape:window-maximized="0"
     inkscape:grid-bbox="true"
     inkscape:snap-bbox="true"
     inkscape:bbox-paths="true"
     inkscape:bbox-nodes="true"
     inkscape:snap-bbox-edge-midpoints="true"
     inkscape:snap-bbox-midpoints="true"
     inkscape:snap-intersection-paths="true"
     inkscape:object-paths="true"
     inkscape:snap-smooth-nodes="true"
     inkscape:snap-others="true"
     inkscape:snap-midpoints="true"
     inkscape:snap-object-midpoints="true"
     inkscape:snap-center="true"
     inkscape:snap-text-baseline="true">
    <inkscape:grid
       type="xygrid"
       id="grid3130" />
  </sodipodi:namedview>
  <metadata
     id="metadata2577">
    <rdf:RDF>
      <cc:Work
         rdf:about="">
        <dc:format>image/svg+xml</dc:format>
        <dc:type
           rdf:resource="http://purl.org/dc/dcmitype/StillImage" />
        <dc:title></dc:title>
      </cc:Work>
    </rdf:RDF>
  </metadata>
  <g
     inkscape:label="Layer 1"
     inkscape:groupmode="layer"
     id="layer1">
    <path
       style="opacity:1;fill:#3b40ff;fill-opacity:1;stroke:#000000;stroke-width:0.49999997;stroke-linecap:round;stroke-linejoin:round;stroke-miterlimit:4;stroke-dasharray:0, 0.5, 1, 1.50000001, 2, 2.5, 3, 3.5, 4.00000001, 4.50000001, 5.00000001, 5.5, 6, 6.5, 7.00000001;stroke-dashoffset:0;stroke-opacity:1"
       d="M 6.2824287,0.43866809 A 3.7824287,3.7846671 0 0 0 2.5,4.2233352 3.7824287,3.7846671 0 0 0 6.2824287,8.0080022 H 7.2280358 V 9.9003359 H 2.5 a 2.8368215,2.8385003 0 0 0 0.00739,0.2014301 2.8368215,2.8385003 0 0 0 0.033244,0.280894 2.8368215,2.8385003 0 0 0 0.062794,0.277196 2.8368215,2.8385003 0 0 0 0.088651,0.269806 2.8368215,2.8385003 0 0 0 0.116354,0.258717 2.8368215,2.8385003 0 0 0 0.1422105,0.245782 2.8368215,2.8385003 0 0 0 0.1643731,0.230997 2.8368215,2.8385003 0 0 0 0.1865357,0.212519 2.8368215,2.8385003 0 0 0 0.2068516,0.194038 2.8368215,2.8385003 0 0 0 0.2271674,0.171862 2.8368215,2.8385003 0 0 0 0.2419425,0.147838 2.8368215,2.8385003 0 0 0 0.2548706,0.123815 2.8368215,2.8385003 0 0 0 0.265952,0.0961 2.8368215,2.8385003 0 0 0 0.2751865,0.07023 2.8368215,2.8385003 0 0 0 0.2807272,0.0425 2.8368215,2.8385003 0 0 0 0.2825768,0.01478 h 1.8912143 v 0.946167 A 3.7824285,3.7846669 0 0 0 11.010465,17.46967 3.7824285,3.7846669 0 0 0 14.792893,13.685003 3.7824285,3.7846669 0 0 0 13.959947,11.321434 3.7824287,3.7846671 0 0 0 14.792893,8.954169 3.7824287,3.7846671 0 0 0 11.010465,5.1695019 H 10.064857 V 4.2233352 A 3.7824287,3.7846671 0 0 0 6.2824287,0.43866809 Z m 0,2.83850031 a 0.94560717,0.94616677 0 0 1 0.094191,0.00554 0.94560717,0.94616677 0 0 1 0.094191,0.012936 0.94560717,0.94616677 0 0 1 0.090497,0.024024 0.94560717,0.94616677 0 0 1 0.088651,0.031416 0.94560717,0.94616677 0 0 1 0.084957,0.042504 0.94560717,0.94616677 0 0 1 0.081263,0.048047 0.94560717,0.94616677 0 0 1 0.075722,0.057288 0.94560717,0.94616677 0 0 1 0.068335,0.064679 0.94560717,0.94616677 0 0 1 0.062794,0.072071 0.94560717,0.94616677 0 0 1 0.055407,0.075767 0.94560717,0.94616677 0 0 1 0.046172,0.08316 0.94560717,0.94616677 0 0 1 0.038785,0.085007 0.94560717,0.94616677 0 0 1 0.02955,0.090551 0.94560717,0.94616677 0 0 1 0.022162,0.092399 0.94560717,0.94616677 0 0 1 0.011081,0.094247 0.94560717,0.94616677 0 0 1 0.00185,0.066527 v 0.9461705 h -0.945608 a 0.94560717,0.94616677 0 0 1 -0.094191,-0.00554 0.94560717,0.94616677 0 0 1 -0.094191,-0.012936 0.94560717,0.94616677 0 0 1 -0.090498,-0.024024 0.94560717,0.94616677 0 0 1 -0.088651,-0.031416 0.94560717,0.94616677 0 0 1 -0.084957,-0.042504 0.94560717,0.94616677 0 0 1 -0.081263,-0.048047 0.94560717,0.94616677 0 0 1 -0.075722,-0.057288 0.94560717,0.94616677 0 0 1 -0.068335,-0.064679 0.94560717,0.94616677 0 0 1 -0.062794,-0.072071 0.94560717,0.94616677 0 0 1 -0.055407,-0.075767 0.94560717,0.94616677 0 0 1 -0.046172,-0.083159 0.94560717,0.94616677 0 0 1 -0.038785,-0.085007 0.94560717,0.94616677 0 0 1 -0.02955,-0.090551 0.94560717,0.94616677 0 0 1 -0.022163,-0.092399 0.94560717,0.94616677 0 0 1 -0.011081,-0.094247 0.94560717,0.94616677 0 0 1 -0.00185,-0.066527 0.94560717,0.94616677 0 0 1 0.00554,-0.094247 0.94560717,0.94616677 0 0 1 0.012928,-0.094247 0.94560717,0.94616677 0 0 1 0.02401,-0.090551 0.94560717,0.94616677 0 0 1 0.031397,-0.088703 0.94560717,0.94616677 0 0 1 0.042479,-0.085007 0.94560717,0.94616677 0 0 1 0.048019,-0.081311 0.94560717,0.94616677 0 0 1 0.057254,-0.075767 0.94560717,0.94616677 0 0 1 0.064641,-0.068376 0.94560717,0.94616677 0 0 1 0.072029,-0.062831 0.94560717,0.94616677 0 0 1 0.075722,-0.05544 0.94560717,0.94616677 0 0 1 0.08311,-0.046199 0.94560717,0.94616677 0 0 1 0.084957,-0.038808 0.94560717,0.94616677 0 0 1 0.090497,-0.029568 0.94560717,0.94616677 0 0 1 0.092344,-0.022175 0.94560717,0.94616677 0 0 1 0.094191,-0.011088 0.94560717,0.94616677 0 0 1 0.066488,-0.00185 z m 3.7824283,4.7308338 h 0.945608 a 0.94560717,0.94616677 0 0 1 0.09419,0.00554 0.94560717,0.94616677 0 0 1 0.09419,0.012936 0.94560717,0.94616677 0 0 1 0.0905,0.024024 0.94560717,0.94616677 0 0 1 0.08865,0.031416 0.94560717,0.94616677 0 0 1 0.08495,0.042504 0.94560717,0.94616677 0 0 1 0.08127,0.048047 0.94560717,0.94616677 0 0 1 0.07573,0.057288 0.94560717,0.94616677 0 0 1 0.06834,0.064679 0.94560717,0.94616677 0 0 1 0.0628,0.072071 0.94560717,0.94616677 0 0 1 0.0554,0.075767 0.94560717,0.94616677 0 0 1 0.04617,0.083159 0.94560717,0.94616677 0 0 1 0.03879,0.085007 0.94560717,0.94616677 0 0 1 0.02955,0.090551 0.94560717,0.94616677 0 0 1 0.02217,0.092399 0.94560717,0.94616677 0 0 1 0.01108,0.094247 0.94560717,0.94616677 0 0 1 0.0018,0.066527 0.94560717,0.94616677 0 0 1 -0.0056,0.094247 0.94560717,0.94616677 0 0 1 -0.01293,0.094247 0.94560717,0.94616677 0 0 1 -0.02401,0.090551 0.94560717,0.94616677 0 0 1 -0.03139,0.088703 0.94560717,0.94616677 0 0 1 -0.04248,0.085007 0.94560717,0.94616677 0 0 1 -0.04802,0.081311 0.94560717,0.94616677 0 0 1 -0.05726,0.07577 0.94560717,0.94616677 0 0 1 -0.06464,0.06838 0.94560717,0.94616677 0 0 1 -0.07203,0.06283 0.94560717,0.94616677 0 0 1 -0.07572,0.05544 0.94560717,0.94616677 0 0 1 -0.08311,0.0462 0.94560717,0.94616677 0 0 1 -0.08495,0.03881 0.94560717,0.94616677 0 0 1 -0.09049,0.02957 0.94560717,0.94616677 0 0 1 -0.09235,0.02217 0.94560717,0.94616677 0 0 1 -0.09419,0.01109 0.94560717,0.94616677 0 0 1 -0.06646,0.0018 h -0.945608 z m 0,4.7308338 h 0.945608 a 0.94560717,0.94616677 0 0 1 0.09419,0.0056 0.94560717,0.94616677 0 0 1 0.09419,0.01293 0.94560717,0.94616677 0 0 1 0.0905,0.02402 0.94560717,0.94616677 0 0 1 0.08865,0.03141 0.94560717,0.94616677 0 0 1 0.08495,0.0425 0.94560717,0.94616677 0 0 1 0.08127,0.04805 0.94560717,0.94616677 0 0 1 0.07573,0.05729 0.94560717,0.94616677 0 0 1 0.06834,0.06468 0.94560717,0.94616677 0 0 1 0.0628,0.07207 0.94560717,0.94616677 0 0 1 0.0554,0.07577 0.94560717,0.94616677 0 0 1 0.04617,0.08316 0.94560717,0.94616677 0 0 1 0.03879,0.085 0.94560717,0.94616677 0 0 1 0.02955,0.09055 0.94560717,0.94616677 0 0 1 0.02217,0.0924 0.94560717,0.94616677 0 0 1 0.01108,0.09425 0.94560717,0.94616677 0 0 1 0.0018,0.0665 0.94560717,0.94616677 0 0 1 -0.0056,0.09425 0.94560717,0.94616677 0 0 1 -0.01293,0.09425 0.94560717,0.94616677 0 0 1 -0.02401,0.09055 0.94560717,0.94616677 0 0 1 -0.03139,0.0887 0.94560717,0.94616677 0 0 1 -0.04248,0.085 0.94560717,0.94616677 0 0 1 -0.04802,0.08131 0.94560717,0.94616677 0 0 1 -0.05726,0.07577 0.94560717,0.94616677 0 0 1 -0.06464,0.06838 0.94560717,0.94616677 0 0 1 -0.07203,0.06283 0.94560717,0.94616677 0 0 1 -0.07572,0.05544 0.94560717,0.94616677 0 0 1 -0.08311,0.0462 0.94560717,0.94616677 0 0 1 -0.08495,0.03881 0.94560717,0.94616677 0 0 1 -0.09049,0.02957 0.94560717,0.94616677 0 0 1 -0.09235,0.02218 0.94560717,0.94616677 0 0 1 -0.09419,0.01109 0.94560717,0.94616677 0 0 1 -0.06646,0.0018 0.94560717,0.94616677 0 0 1 -0.09419,-0.0056 0.94560717,0.94616677 0 0 1 -0.09419,-0.01293 0.94560717,0.94616677 0 0 1 -0.0905,-0.02402 0.94560717,0.94616677 0 0 1 -0.08865,-0.03141 0.94560717,0.94616677 0 0 1 -0.08495,-0.0425 0.94560717,0.94616677 0 0 1 -0.08127,-0.04805 0.94560717,0.94616677 0 0 1 -0.07573,-0.05729 0.94560717,0.94616677 0 0 1 -0.06834,-0.06468 0.94560717,0.94616677 0 0 1 -0.0628,-0.07207 0.94560717,0.94616677 0 0 1 -0.0554,-0.07577 0.94560717,0.94616677 0 0 1 -0.04617,-0.08316 0.94560717,0.94616677 0 0 1 -0.03879,-0.085 0.94560717,0.94616677 0 0 1 -0.02955,-0.09055 0.94560717,0.94616677 0 0 1 -0.02216,-0.0924 0.94560717,0.94616677 0 0 1 -0.01108,-0.09425 0.94560717,0.94616677 0 0 1 -0.0018,-0.0665 z"
       id="path3132"
       inkscape:connector-curvature="0" />
  </g>
</svg>
