<?xml version="1.0" encoding="UTF-8" standalone="no"?>
<!-- Created with Inkscape (http://www.inkscape.org/) -->

<svg
   xmlns:dc="http://purl.org/dc/elements/1.1/"
   xmlns:cc="http://creativecommons.org/ns#"
   xmlns:rdf="http://www.w3.org/1999/02/22-rdf-syntax-ns#"
   xmlns:svg="http://www.w3.org/2000/svg"
   xmlns="http://www.w3.org/2000/svg"
   xmlns:sodipodi="http://sodipodi.sourceforge.net/DTD/sodipodi-0.dtd"
   xmlns:inkscape="http://www.inkscape.org/namespaces/inkscape"
   width="2560"
   height="1440"
   viewBox="0 0 2560 1440"
   version="1.1"
   id="SVGRoot"
   inkscape:version="0.92.4 5da689c313, 2019-01-14"
   sodipodi:docname="banner.svg"
   inkscape:export-filename="/home/benjamin/workspace/logo/compilationist/banner.png"
   inkscape:export-xdpi="96"
   inkscape:export-ydpi="96">
  <defs
     id="defs863" />
  <sodipodi:namedview
     id="base"
     pagecolor="#fff8e3"
     bordercolor="#666666"
     borderopacity="1.0"
     inkscape:pageopacity="1"
     inkscape:pageshadow="2"
     inkscape:zoom="0.35"
     inkscape:cx="1069.6069"
     inkscape:cy="743.18742"
     inkscape:document-units="px"
     inkscape:current-layer="g4753"
     showgrid="false"
     inkscape:window-width="1920"
     inkscape:window-height="1058"
     inkscape:window-x="1920"
     inkscape:window-y="22"
     inkscape:window-maximized="0"
     inkscape:snap-bbox="true"
     inkscape:bbox-paths="true"
     inkscape:bbox-nodes="true"
     inkscape:snap-bbox-edge-midpoints="true"
     inkscape:snap-nodes="true"
     inkscape:snap-bbox-midpoints="true"
     inkscape:object-paths="true"
     inkscape:snap-intersection-paths="true"
     inkscape:snap-smooth-nodes="true"
     inkscape:snap-midpoints="true"
     inkscape:snap-object-midpoints="true"
     inkscape:snap-center="true"
     inkscape:snap-text-baseline="true"
     inkscape:snap-global="true"
     inkscape:pagecheckerboard="false" />
  <metadata
     id="metadata866">
    <rdf:RDF>
      <cc:Work
         rdf:about="">
        <dc:format>image/svg+xml</dc:format>
        <dc:type
           rdf:resource="http://purl.org/dc/dcmitype/StillImage" />
        <dc:title></dc:title>
      </cc:Work>
    </rdf:RDF>
  </metadata>
  <g
     inkscape:groupmode="layer"
     id="layer2"
     inkscape:label="back"
     style="display:none"
     sodipodi:insensitive="true">
    <rect
       transform="translate(0,360)"
       style="opacity:1;fill:#ffe640;fill-opacity:1;stroke:none;stroke-width:10;stroke-linecap:round;stroke-linejoin:round;stroke-miterlimit:4;stroke-dasharray:0, 9.99999996, 19.99999992, 29.99999988, 39.99999983, 49.99999979, 59.99999974, 69.9999997, 79.99999965, 89.99999961, 99.99999957, 109.99999953, 119.99999948, 129.99999945, 139.99999939;stroke-dashoffset:0;stroke-opacity:1"
       id="rect1419"
       width="2560"
       height="423"
       x="-2.8571429"
       y="148.5"
       ry="0" />
    <rect
       transform="translate(0,360)"
       ry="0"
       y="148.5"
       x="349.64285"
       height="423"
       width="1855"
       id="rect1421"
       style="opacity:1;fill:#0000ff;fill-opacity:1;stroke:none;stroke-width:10;stroke-linecap:round;stroke-linejoin:round;stroke-miterlimit:4;stroke-dasharray:0, 9.99999992, 19.99999985, 29.99999977, 39.9999997, 49.99999962, 59.99999953, 69.99999946, 79.99999937, 89.9999993, 99.99999923, 109.99999915, 119.99999907, 129.999999, 139.9999989;stroke-dashoffset:0;stroke-opacity:1" />
    <rect
       transform="translate(0,360)"
       style="opacity:1;fill:#ff00ff;fill-opacity:1;stroke:none;stroke-width:10;stroke-linecap:round;stroke-linejoin:round;stroke-miterlimit:4;stroke-dasharray:0, 9.99999991, 19.99999984, 29.99999976, 39.99999969, 49.9999996, 59.99999951, 69.99999944, 79.99999934, 89.99999927, 99.99999919, 109.99999911, 119.99999903, 129.99999895, 139.99999885;stroke-dashoffset:0;stroke-opacity:1"
       id="rect1423"
       width="1546"
       height="423"
       x="504.14282"
       y="148.5"
       ry="0" />
  </g>
  <g
     inkscape:groupmode="layer"
     id="layer3"
     inkscape:label="wall"
     style="display:inline;opacity:1"
     sodipodi:insensitive="true">
    <rect
       ry="57.470009"
       y="909.48151"
       x="613.65021"
       height="114.94002"
       width="806.52673"
       id="rect1027"
       style="display:inline;opacity:1;fill:#fff1c8;fill-opacity:1;stroke:#ffe089;stroke-width:10;stroke-linecap:round;stroke-linejoin:round;stroke-miterlimit:4;stroke-dasharray:0, 9.99999982, 19.99999964, 29.99999948, 39.99999928, 49.99999911, 59.99999893, 69.99999873, 79.99999857, 89.99999838, 99.99999821, 109.99999802, 119.99999785, 129.99999767, 139.99999748;stroke-dashoffset:0;stroke-opacity:1" />
    <rect
       style="display:inline;opacity:1;fill:#fff1c8;fill-opacity:1;stroke:#ffe089;stroke-width:10;stroke-linecap:round;stroke-linejoin:round;stroke-miterlimit:4;stroke-dasharray:0, 9.99999975, 19.9999995, 29.99999925, 39.99999901, 49.99999873, 59.99999848, 69.99999822, 79.99999798, 89.99999771, 99.99999746, 109.99999723, 119.99999696, 129.99999671, 139.99999646;stroke-dashoffset:0;stroke-opacity:1"
       id="rect1039"
       width="533.54419"
       height="120.68702"
       x="165.38411"
       y="119.26902"
       ry="60.34351" />
    <rect
       ry="60.34351"
       y="70.419342"
       x="1702.7072"
       height="120.68702"
       width="717.44818"
       id="rect1041"
       style="display:inline;opacity:1;fill:#fff1c8;fill-opacity:1;stroke:#ffe089;stroke-width:10;stroke-linecap:round;stroke-linejoin:round;stroke-miterlimit:4;stroke-dasharray:0, 9.99999981, 19.99999963, 29.99999945, 39.99999928, 49.99999908, 59.99999888, 69.9999987, 79.99999854, 89.99999835, 99.99999815, 109.99999796, 119.99999778, 129.99999759, 139.99999741;stroke-dashoffset:0;stroke-opacity:1" />
    <rect
       style="display:inline;opacity:1;fill:#fff1c8;fill-opacity:1;stroke:#ffe089;stroke-width:10.00000095;stroke-linecap:round;stroke-linejoin:round;stroke-miterlimit:4;stroke-dasharray:0, 9.99999976, 19.99999953, 29.99999929, 39.99999907, 49.9999988, 59.99999857, 69.99999833, 79.99999811, 89.99999786, 99.99999762, 109.99999737, 119.99999715, 129.9999969, 139.99999668;stroke-dashoffset:0;stroke-opacity:1"
       id="rect1043"
       width="944.45471"
       height="54.596508"
       x="257.33615"
       y="317.54047"
       ry="27.298254" />
    <rect
       ry="107.75626"
       y="1104.8795"
       x="1452.7124"
       height="215.51253"
       width="703.08069"
       id="rect1045"
       style="display:inline;opacity:1;fill:#fff1c8;fill-opacity:1;stroke:#ffe089;stroke-width:10.00000095;stroke-linecap:round;stroke-linejoin:round;stroke-miterlimit:4;stroke-dasharray:0, 9.99999976, 19.99999953, 29.99999931, 39.99999908, 49.99999882, 59.99999857, 69.99999835, 79.99999814, 89.99999789, 99.99999765, 109.99999741, 119.99999718, 129.99999694, 139.99999672;stroke-dashoffset:0;stroke-opacity:1" />
    <rect
       style="display:inline;opacity:1;fill:#fff1c8;fill-opacity:1;stroke:#ffe089;stroke-width:10.00000095;stroke-linecap:round;stroke-linejoin:round;stroke-miterlimit:4;stroke-dasharray:0, 9.99999971, 19.99999941, 29.99999912, 39.99999884, 49.99999853, 59.99999819, 69.99999791, 79.99999765, 89.99999733, 99.99999703, 109.99999674, 119.99999645, 129.99999614, 139.99999586;stroke-dashoffset:0;stroke-opacity:1"
       id="rect1047"
       width="205.96512"
       height="163.78952"
       x="2265.9133"
       y="811.78253"
       ry="81.89476" />
    <rect
       ry="40.229004"
       y="734.198"
       x="1665.3517"
       height="80.458008"
       width="539.29114"
       id="rect1049"
       style="display:inline;opacity:1;fill:#fff1c8;fill-opacity:1;stroke:#ffe089;stroke-width:10.00000095;stroke-linecap:round;stroke-linejoin:round;stroke-miterlimit:4;stroke-dasharray:0, 9.99999969, 19.99999935, 29.99999905, 39.99999872, 49.99999837, 59.99999804, 69.99999771, 79.99999742, 89.99999707, 99.99999676, 109.99999642, 119.9999961, 129.99999576, 139.99999547;stroke-dashoffset:0;stroke-opacity:1" />
    <rect
       style="display:inline;opacity:1;fill:#fff1c8;fill-opacity:1;stroke:#ffe089;stroke-width:10.00000095;stroke-linecap:round;stroke-linejoin:round;stroke-miterlimit:4;stroke-dasharray:0, 9.99999979, 19.99999956, 29.99999935, 39.99999911, 49.99999889, 59.99999864, 69.99999843, 79.99999824, 89.99999799, 99.99999779, 109.99999756, 119.99999732, 129.99999709, 139.99999689;stroke-dashoffset:0;stroke-opacity:1"
       id="rect1051"
       width="533.54419"
       height="97.699013"
       x="1464.2063"
       y="446.84796"
       ry="48.849506" />
    <rect
       style="display:inline;opacity:1;fill:#fff1c8;fill-opacity:1;stroke:#ffe089;stroke-width:10;stroke-linecap:round;stroke-linejoin:round;stroke-miterlimit:4;stroke-dasharray:0, 9.99999978, 19.99999954, 29.99999932, 39.9999991, 49.99999886, 59.99999864, 69.9999984, 79.99999818, 89.99999794, 99.99999772, 109.9999975, 119.99999728, 129.99999704, 139.99999682;stroke-dashoffset:0;stroke-opacity:1"
       id="rect1053"
       width="812.27368"
       height="267.23553"
       x="504.45718"
       y="530.17944"
       ry="133.61777" />
    <rect
       ry="90.515259"
       y="1156.6025"
       x="774.56616"
       height="181.03052"
       width="435.84515"
       id="rect1055"
       style="display:inline;opacity:1;fill:#fff1c8;fill-opacity:1;stroke:#ffe089;stroke-width:10;stroke-linecap:round;stroke-linejoin:round;stroke-miterlimit:4;stroke-dasharray:0, 9.99999982, 19.99999963, 29.99999943, 39.99999924, 49.99999903, 59.99999885, 69.99999866, 79.99999847, 89.99999826, 99.99999808, 109.99999787, 119.9999977, 129.9999975, 139.99999731;stroke-dashoffset:0;stroke-opacity:1" />
    <rect
       style="display:inline;opacity:1;fill:#fff1c8;fill-opacity:1;stroke:#ffe089;stroke-width:9.99999905;stroke-linecap:round;stroke-linejoin:round;stroke-miterlimit:4;stroke-dasharray:0, 9.99999962, 19.99999925, 29.99999887, 39.99999849, 49.9999981, 59.99999775, 69.99999735, 79.99999699, 89.99999659, 99.99999623, 109.99999583, 119.99999547, 129.9999951, 139.99999472;stroke-dashoffset:0;stroke-opacity:1"
       id="rect1057"
       width="556.53217"
       height="45.976006"
       x="105.04062"
       y="1216.946"
       ry="22.988003" />
    <rect
       ry="122.12376"
       y="803.16199"
       x="102.16711"
       height="244.24753"
       width="341.01965"
       id="rect1059"
       style="display:inline;opacity:1;fill:#fff1c8;fill-opacity:1;stroke:#ffe089;stroke-width:9.99999905;stroke-linecap:round;stroke-linejoin:round;stroke-miterlimit:4;stroke-dasharray:0, 9.99999962, 19.99999924, 29.99999885, 39.99999848, 49.99999807, 59.99999771, 69.99999731, 79.99999693, 89.99999654, 99.99999614, 109.99999575, 119.99999538, 129.999995, 139.99999462;stroke-dashoffset:0;stroke-opacity:1" />
  </g>
  <g
     inkscape:label="logo"
     inkscape:groupmode="layer"
     id="layer1"
     transform="translate(0,360)">
    <g
       id="g4753">
      <path
         id="path3132-2"
         d="m 745.93895,190.48713 a 76.122396,75.363848 0 0 0 -76.1224,75.36385 76.122396,75.363848 0 0 0 76.1224,75.36385 h 19.03059 v 37.68193 h -95.15299 a 57.091797,56.522886 0 0 0 0.14844,4.01107 57.091797,56.522886 0 0 0 0.66911,5.59341 57.091797,56.522886 0 0 0 1.26383,5.5198 57.091797,56.522886 0 0 0 1.78412,5.37263 57.091797,56.522886 0 0 0 2.34165,5.15182 57.091797,56.522886 0 0 0 2.86202,4.89424 57.091797,56.522886 0 0 0 3.30805,4.59983 57.091797,56.522886 0 0 0 3.75409,4.23187 57.091797,56.522886 0 0 0 4.16294,3.86387 57.091797,56.522886 0 0 0 4.5718,3.42227 57.091797,56.522886 0 0 0 4.86917,2.9439 57.091797,56.522886 0 0 0 5.12933,2.46553 57.091797,56.522886 0 0 0 5.35236,1.91352 57.091797,56.522886 0 0 0 5.53821,1.39838 57.091797,56.522886 0 0 0 5.64971,0.84633 57.091797,56.522886 0 0 0 5.68693,0.29441 h 38.0612 v 18.84097 a 76.122392,75.363844 0 0 0 76.12239,75.36385 76.122392,75.363844 0 0 0 76.1224,-75.36385 76.122392,75.363844 0 0 0 -16.76328,-47.06561 76.122396,75.363848 0 0 0 16.76328,-47.13921 76.122396,75.363848 0 0 0 -76.1224,-75.36385 h -19.0306 v -18.84096 a 76.122396,75.363848 0 0 0 -76.12239,-75.36385 z m 0,56.52289 a 19.030599,18.840962 0 0 1 1.89563,0.11041 19.030599,18.840962 0 0 1 1.89564,0.25759 19.030599,18.840962 0 0 1 1.82123,0.47839 19.030599,18.840962 0 0 1 1.78412,0.62558 19.030599,18.840962 0 0 1 1.70971,0.84637 19.030599,18.840962 0 0 1 1.63549,0.95676 19.030599,18.840962 0 0 1 1.52397,1.14077 19.030599,18.840962 0 0 1 1.37534,1.28795 19.030599,18.840962 0 0 1 1.26382,1.43515 19.030599,18.840962 0 0 1 1.115,1.50875 19.030599,18.840962 0 0 1 0.92927,1.65595 19.030599,18.840962 0 0 1 0.78063,1.69275 19.030599,18.840962 0 0 1 0.59471,1.80313 19.030599,18.840962 0 0 1 0.44608,1.83993 19.030599,18.840962 0 0 1 0.22304,1.87673 19.030599,18.840962 0 0 1 0.0381,1.32475 v 18.84096 h -19.0306 a 19.030599,18.840962 0 0 1 -1.89564,-0.11041 19.030599,18.840962 0 0 1 -1.89564,-0.25759 19.030599,18.840962 0 0 1 -1.82123,-0.47839 19.030599,18.840962 0 0 1 -1.78412,-0.62558 19.030599,18.840962 0 0 1 -1.7097,-0.84637 19.030599,18.840962 0 0 1 -1.63549,-0.95676 19.030599,18.840962 0 0 1 -1.52397,-1.14077 19.030599,18.840962 0 0 1 -1.37535,-1.28795 19.030599,18.840962 0 0 1 -1.26382,-1.43515 19.030599,18.840962 0 0 1 -1.115,-1.50875 19.030599,18.840962 0 0 1 -0.92926,-1.65594 19.030599,18.840962 0 0 1 -0.78064,-1.69274 19.030599,18.840962 0 0 1 -0.59471,-1.80314 19.030599,18.840962 0 0 1 -0.44607,-1.83994 19.030599,18.840962 0 0 1 -0.22304,-1.87674 19.030599,18.840962 0 0 1 -0.0381,-1.32475 19.030599,18.840962 0 0 1 0.11228,-1.87673 19.030599,18.840962 0 0 1 0.26015,-1.87673 19.030599,18.840962 0 0 1 0.48318,-1.80314 19.030599,18.840962 0 0 1 0.63182,-1.76634 19.030599,18.840962 0 0 1 0.85485,-1.69274 19.030599,18.840962 0 0 1 0.96638,-1.61914 19.030599,18.840962 0 0 1 1.1523,-1.50875 19.030599,18.840962 0 0 1 1.30093,-1.36156 19.030599,18.840962 0 0 1 1.44956,-1.25115 19.030599,18.840962 0 0 1 1.52397,-1.10397 19.030599,18.840962 0 0 1 1.6726,-0.91996 19.030599,18.840962 0 0 1 1.70971,-0.77279 19.030599,18.840962 0 0 1 1.82123,-0.58878 19.030599,18.840962 0 0 1 1.85853,-0.44157 19.030599,18.840962 0 0 1 1.89564,-0.2208 19.030599,18.840962 0 0 1 1.33804,-0.0368 z m 76.12239,94.20481 h 19.0306 a 19.030599,18.840962 0 0 1 1.89564,0.11041 19.030599,18.840962 0 0 1 1.89564,0.25759 19.030599,18.840962 0 0 1 1.82123,0.4784 19.030599,18.840962 0 0 1 1.78411,0.62557 19.030599,18.840962 0 0 1 1.70971,0.84638 19.030599,18.840962 0 0 1 1.63549,0.95676 19.030599,18.840962 0 0 1 1.52397,1.14076 19.030599,18.840962 0 0 1 1.37534,1.28795 19.030599,18.840962 0 0 1 1.26383,1.43516 19.030599,18.840962 0 0 1 1.115,1.50874 19.030599,18.840962 0 0 1 0.92926,1.65595 19.030599,18.840962 0 0 1 0.78064,1.69275 19.030599,18.840962 0 0 1 0.5947,1.80314 19.030599,18.840962 0 0 1 0.44608,1.83993 19.030599,18.840962 0 0 1 0.22304,1.87673 19.030599,18.840962 0 0 1 0.0362,1.32474 19.030599,18.840962 0 0 1 -0.11228,1.87673 19.030599,18.840962 0 0 1 -0.26015,1.87673 19.030599,18.840962 0 0 1 -0.48319,1.80314 19.030599,18.840962 0 0 1 -0.63181,1.76634 19.030599,18.840962 0 0 1 -0.85486,1.69275 19.030599,18.840962 0 0 1 -0.96637,1.61913 19.030599,18.840962 0 0 1 -1.1523,1.50875 19.030599,18.840962 0 0 1 -1.30094,1.36156 19.030599,18.840962 0 0 1 -1.44956,1.25115 19.030599,18.840962 0 0 1 -1.52397,1.10397 19.030599,18.840962 0 0 1 -1.6726,0.91997 19.030599,18.840962 0 0 1 -1.70971,0.77278 19.030599,18.840962 0 0 1 -1.82122,0.58878 19.030599,18.840962 0 0 1 -1.85853,0.44157 19.030599,18.840962 0 0 1 -1.89564,0.2208 19.030599,18.840962 0 0 1 -1.33747,0.0367 h -19.0306 z m 0,94.20481 h 19.0306 a 19.030599,18.840962 0 0 1 1.89564,0.11116 19.030599,18.840962 0 0 1 1.89564,0.25756 19.030599,18.840962 0 0 1 1.82123,0.47837 19.030599,18.840962 0 0 1 1.78411,0.62552 19.030599,18.840962 0 0 1 1.70971,0.84634 19.030599,18.840962 0 0 1 1.63549,0.95674 19.030599,18.840962 0 0 1 1.52397,1.14082 19.030599,18.840962 0 0 1 1.37534,1.28797 19.030599,18.840962 0 0 1 1.26383,1.43512 19.030599,18.840962 0 0 1 1.115,1.50878 19.030599,18.840962 0 0 1 0.92926,1.65593 19.030599,18.840962 0 0 1 0.78064,1.69268 19.030599,18.840962 0 0 1 0.5947,1.80308 19.030599,18.840962 0 0 1 0.44608,1.84 19.030599,18.840962 0 0 1 0.22304,1.87675 19.030599,18.840962 0 0 1 0.0362,1.32414 19.030599,18.840962 0 0 1 -0.11228,1.87675 19.030599,18.840962 0 0 1 -0.26015,1.87675 19.030599,18.840962 0 0 1 -0.48319,1.80308 19.030599,18.840962 0 0 1 -0.63181,1.76634 19.030599,18.840962 0 0 1 -0.85486,1.69267 19.030599,18.840962 0 0 1 -0.96637,1.6192 19.030599,18.840962 0 0 1 -1.1523,1.50878 19.030599,18.840962 0 0 1 -1.30094,1.36164 19.030599,18.840962 0 0 1 -1.44956,1.25122 19.030599,18.840962 0 0 1 -1.52397,1.1039 19.030599,18.840962 0 0 1 -1.6726,0.92 19.030599,18.840962 0 0 1 -1.70971,0.77286 19.030599,18.840962 0 0 1 -1.82122,0.58878 19.030599,18.840962 0 0 1 -1.85853,0.44163 19.030599,18.840962 0 0 1 -1.89564,0.22082 19.030599,18.840962 0 0 1 -1.33747,0.0358 19.030599,18.840962 0 0 1 -1.89564,-0.11117 19.030599,18.840962 0 0 1 -1.89564,-0.25755 19.030599,18.840962 0 0 1 -1.82122,-0.47837 19.030599,18.840962 0 0 1 -1.78412,-0.62552 19.030599,18.840962 0 0 1 -1.70971,-0.84634 19.030599,18.840962 0 0 1 -1.63549,-0.95674 19.030599,18.840962 0 0 1 -1.52397,-1.14082 19.030599,18.840962 0 0 1 -1.37534,-1.28797 19.030599,18.840962 0 0 1 -1.26383,-1.43512 19.030599,18.840962 0 0 1 -1.115,-1.50878 19.030599,18.840962 0 0 1 -0.92926,-1.65594 19.030599,18.840962 0 0 1 -0.78064,-1.69267 19.030599,18.840962 0 0 1 -0.5947,-1.80308 19.030599,18.840962 0 0 1 -0.44608,-1.84001 19.030599,18.840962 0 0 1 -0.22304,-1.87674 19.030599,18.840962 0 0 1 -0.0362,-1.32415 z"
         style="opacity:1;fill:#ff4949;fill-opacity:1;stroke:#161616;stroke-width:10;stroke-linecap:round;stroke-linejoin:round;stroke-miterlimit:4;stroke-dasharray:0, 10, 20, 30, 40, 50, 60, 70, 80, 90, 100, 110, 120, 130, 140;stroke-dashoffset:0;stroke-opacity:1"
         inkscape:connector-curvature="0" />
      <g
         transform="translate(45.869799,446.16038)"
         id="g3381">
        <flowRoot
           xml:space="preserve"
           id="flowRoot3328"
           style="font-style:normal;font-variant:normal;font-weight:normal;font-stretch:normal;font-size:53.33333206px;line-height:1.25;font-family:'Visby Round CF';-inkscape-font-specification:'Visby Round CF';font-variant-ligatures:normal;font-variant-position:normal;font-variant-caps:normal;font-variant-numeric:normal;font-variant-alternates:normal;font-feature-settings:normal;text-indent:0;text-align:start;text-decoration:none;text-decoration-line:none;text-decoration-style:solid;text-decoration-color:#000000;letter-spacing:0px;word-spacing:0px;text-transform:none;writing-mode:lr-tb;direction:ltr;text-orientation:mixed;dominant-baseline:auto;baseline-shift:baseline;text-anchor:start;white-space:normal;shape-padding:0;opacity:1;vector-effect:none;fill:#000000;fill-opacity:1;stroke:none;stroke-width:0.05111608;stroke-linecap:butt;stroke-linejoin:miter;stroke-miterlimit:4;stroke-dasharray:none;stroke-dashoffset:0;stroke-opacity:1"
           transform="matrix(3.0237177,0,0,3.0237177,-1661.8835,-1844.0323)"><flowRegion
             id="flowRegion3330"
             style="stroke-width:0.05111608"><rect
               id="rect3332"
               width="1021.4286"
               height="222.85715"
               x="841.42859"
               y="542.85712"
               style="stroke-width:0.05111608" /></flowRegion><flowPara
             id="flowPara3334"
             style="stroke-width:0.05111608">COMPILATIONIST</flowPara></flowRoot>        <flowRoot
           transform="matrix(1.5311114,0,0,1.5311114,1.6211956,-877.76532)"
           style="font-style:normal;font-variant:normal;font-weight:normal;font-stretch:normal;font-size:53.33333206px;line-height:1.25;font-family:'Visby Round CF';-inkscape-font-specification:'Visby Round CF';font-variant-ligatures:normal;font-variant-position:normal;font-variant-caps:normal;font-variant-numeric:normal;font-variant-alternates:normal;font-feature-settings:normal;text-indent:0;text-align:start;text-decoration:none;text-decoration-line:none;text-decoration-style:solid;text-decoration-color:#000000;letter-spacing:0px;word-spacing:0px;text-transform:none;writing-mode:lr-tb;direction:ltr;text-orientation:mixed;dominant-baseline:auto;baseline-shift:baseline;text-anchor:start;white-space:normal;shape-padding:0;opacity:1;vector-effect:none;fill:#000000;fill-opacity:1;stroke:none;stroke-width:0.10094666;stroke-linecap:butt;stroke-linejoin:miter;stroke-miterlimit:4;stroke-dasharray:none;stroke-dashoffset:0;stroke-opacity:1"
           id="flowRoot3342"
           xml:space="preserve"><flowRegion
             style="stroke-width:0.10094666"
             id="flowRegion3338"><rect
               style="stroke-width:0.10094666"
               y="542.85712"
               x="841.42859"
               height="222.85715"
               width="1021.4286"
               id="rect3336" /></flowRegion><flowPara
             style="stroke-width:0.10094666"
             id="flowPara3340">I make videos</flowPara></flowRoot>      </g>
    </g>
  </g>
</svg>
